<svg viewBox="0 0 120 180" width="240" height="360" xmlns="http://www.w3.org/2000/svg">
<rect x="0" y="148" width="120" height="8" fill="#6db33f"/>
<rect x="4" y="144" width="4" height="8" fill="#6db33f"/>
<rect x="8" y="140" width="4" height="8" fill="#6db33f"/>
<rect x="112" y="144" width="4" height="8" fill="#6db33f"/>
<rect x="8" y="96" width="104" height="56" fill="#f5e6c8"/>
<rect x="8" y="92" width="104" height="4" fill="#c8a06a"/>
<rect x="4" y="88" width="112" height="8" fill="#c0522a"/>
<rect x="8" y="80" width="104" height="8" fill="#c0522a"/>
<rect x="16" y="72" width="88" height="8" fill="#c0522a"/>
<rect x="24" y="64" width="72" height="8" fill="#c0522a"/>
<rect x="32" y="56" width="56" height="8" fill="#c0522a"/>
<rect x="40" y="48" width="40" height="8" fill="#e06030"/>
<rect x="48" y="40" width="24" height="8" fill="#e06030"/>
<rect x="52" y="32" width="16" height="8" fill="#e06030"/>
<rect x="76" y="20" width="12" height="28" fill="#b07840"/>
<rect x="72" y="16" width="20" height="8" fill="#8a5a2a"/>
<rect x="48" y="120" width="24" height="32" fill="#8b5a2a"/>
<rect x="52" y="124" width="8" height="12" fill="#c8943a"/>
<rect x="64" y="124" width="4" height="4" fill="#d4aa50"/>
<rect x="12" y="104" width="24" height="20" fill="#a0d4f5"/>
<rect x="12" y="104" width="24" height="4" fill="#7ab0d8"/>
<rect x="12" y="104" width="4" height="20" fill="#7ab0d8"/>
<rect x="22" y="104" width="4" height="20" fill="#7ab0d8"/>
<rect x="84" y="104" width="24" height="20" fill="#a0d4f5"/>
<rect x="84" y="104" width="24" height="4" fill="#7ab0d8"/>
<rect x="84" y="104" width="4" height="20" fill="#7ab0d8"/>
<rect x="94" y="104" width="4" height="20" fill="#7ab0d8"/>
<rect x="8" y="100" width="4" height="48" fill="#4a9a30"/>
<rect x="4" y="112" width="8" height="4" fill="#5aba40"/>
<rect x="4" y="124" width="8" height="4" fill="#5aba40"/>
<rect x="4" y="136" width="8" height="4" fill="#5aba40"/>
<text x="60" y="170" font-family="monospace" font-size="11" fill="#3a2a1a" font-weight="bold" text-anchor="middle">基礎房子</text>
</svg>