<svg viewBox="0 0 120 180" width="240" height="360" xmlns="http://www.w3.org/2000/svg">
<rect x="0" y="148" width="120" height="8" fill="#6db33f"/>
<rect x="4" y="80" width="112" height="72" fill="#fdf0d0"/>
<rect x="4" y="76" width="112" height="8" fill="#4a6fa5"/>
<rect x="0" y="68" width="120" height="12" fill="#2a4a80"/>
<rect x="4" y="56" width="112" height="16" fill="#3a5a95"/>
<rect x="12" y="48" width="96" height="12" fill="#3a5a95"/>
<rect x="20" y="40" width="80" height="12" fill="#2a4a80"/>
<rect x="28" y="32" width="64" height="12" fill="#2a4a80"/>
<rect x="36" y="24" width="48" height="12" fill="#2a4a80"/>
<rect x="44" y="16" width="32" height="12" fill="#1a3a70"/>
<rect x="20" y="60" width="80" height="20" fill="#f5d580"/>
<rect x="20" y="60" width="80" height="4" fill="#c8a830"/>
<rect x="20" y="76" width="80" height="4" fill="#c8a830"/>
<rect x="24" y="64" width="4" height="8" fill="#3a2010"/>
<rect x="32" y="64" width="4" height="8" fill="#3a2010"/>
<rect x="36" y="64" width="4" height="4" fill="#3a2010"/>
<rect x="44" y="64" width="4" height="8" fill="#3a2010"/>
<rect x="48" y="64" width="4" height="4" fill="#3a2010"/>
<rect x="52" y="68" width="4" height="4" fill="#3a2010"/>
<rect x="60" y="64" width="4" height="8" fill="#3a2010"/>
<rect x="64" y="64" width="4" height="4" fill="#3a2010"/>
<rect x="68" y="64" width="4" height="4" fill="#3a2010"/>
<rect x="72" y="68" width="4" height="4" fill="#3a2010"/>
<rect x="48" y="116" width="24" height="36" fill="#7a4a20"/>
<rect x="52" y="120" width="8" height="12" fill="#b07840"/>
<rect x="64" y="128" width="4" height="4" fill="#e0a050"/>
<rect x="8" y="88" width="32" height="48" fill="#d0e8f8"/>
<rect x="8" y="88" width="32" height="4" fill="#4a6fa5"/>
<rect x="8" y="116" width="32" height="4" fill="#c89040"/>
<rect x="10" y="120" width="4" height="12" fill="#e05030"/>
<rect x="16" y="118" width="4" height="14" fill="#30a050"/>
<rect x="22" y="120" width="4" height="12" fill="#5050e0"/>
<rect x="28" y="119" width="4" height="13" fill="#e09020"/>
<rect x="80" y="88" width="32" height="48" fill="#d0e8f8"/>
<rect x="80" y="88" width="32" height="4" fill="#4a6fa5"/>
<rect x="80" y="116" width="32" height="4" fill="#c89040"/>
<rect x="82" y="120" width="4" height="12" fill="#d04020"/>
<rect x="88" y="118" width="4" height="14" fill="#20a060"/>
<rect x="94" y="120" width="4" height="12" fill="#4040d0"/>
<rect x="100" y="119" width="4" height="13" fill="#d08010"/>
<text x="60" y="170" font-family="monospace" font-size="11" fill="#3a2a1a" font-weight="bold" text-anchor="middle">書　　店</text>
</svg>