<svg viewBox="0 0 120 180" width="240" height="360" xmlns="http://www.w3.org/2000/svg">
<rect x="0" y="148" width="120" height="8" fill="#6db33f"/>
<rect x="4" y="72" width="112" height="80" fill="#c87040"/>
<rect x="4" y="80" width="112" height="2" fill="#a05030"/>
<rect x="4" y="88" width="112" height="2" fill="#a05030"/>
<rect x="4" y="96" width="112" height="2" fill="#a05030"/>
<rect x="4" y="104" width="112" height="2" fill="#a05030"/>
<rect x="4" y="112" width="112" height="2" fill="#a05030"/>
<rect x="4" y="120" width="112" height="2" fill="#a05030"/>
<rect x="4" y="128" width="112" height="2" fill="#a05030"/>
<rect x="4" y="136" width="112" height="2" fill="#a05030"/>
<rect x="20" y="80" width="2" height="8" fill="#a05030"/>
<rect x="44" y="80" width="2" height="8" fill="#a05030"/>
<rect x="68" y="80" width="2" height="8" fill="#a05030"/>
<rect x="92" y="80" width="2" height="8" fill="#a05030"/>
<rect x="32" y="88" width="2" height="8" fill="#a05030"/>
<rect x="56" y="88" width="2" height="8" fill="#a05030"/>
<rect x="80" y="88" width="2" height="8" fill="#a05030"/>
<rect x="0" y="64" width="120" height="12" fill="#5a3a20"/>
<rect x="4" y="56" width="112" height="12" fill="#6a4a28"/>
<rect x="12" y="48" width="96" height="12" fill="#6a4a28"/>
<rect x="20" y="40" width="80" height="12" fill="#5a3a20"/>
<rect x="28" y="32" width="64" height="12" fill="#5a3a20"/>
<rect x="36" y="24" width="48" height="12" fill="#6a4a28"/>
<rect x="44" y="16" width="32" height="12" fill="#6a4a28"/>
<rect x="48" y="8" width="24" height="12" fill="#5a3a20"/>
<rect x="84" y="16" width="12" height="52" fill="#888880"/>
<rect x="80" y="12" width="20" height="8" fill="#666660"/>
<rect x="82" y="4" width="4" height="12" fill="#c0b090"/>
<rect x="88" y="0" width="4" height="12" fill="#c0b090"/>
<rect x="84" y="2" width="12" height="4" fill="#d8c8a0"/>
<rect x="8" y="80" width="28" height="24" fill="#c0d0d8"/>
<rect x="8" y="80" width="28" height="4" fill="#5a4030"/>
<rect x="8" y="80" width="4" height="24" fill="#5a4030"/>
<rect x="20" y="90" width="8" height="8" fill="#888"/>
<rect x="22" y="88" width="4" height="12" fill="#aaa"/>
<rect x="18" y="92" width="12" height="4" fill="#aaa"/>
<rect x="44" y="108" width="36" height="44" fill="#5a3a20"/>
<rect x="48" y="112" width="12" height="8" fill="#6a5030"/>
<rect x="64" y="112" width="12" height="8" fill="#6a5030"/>
<rect x="48" y="124" width="12" height="8" fill="#6a5030"/>
<rect x="64" y="124" width="12" height="8" fill="#6a5030"/>
<rect x="48" y="136" width="12" height="8" fill="#6a5030"/>
<rect x="64" y="136" width="12" height="8" fill="#6a5030"/>
<rect x="84" y="80" width="28" height="24" fill="#c0d0d8"/>
<rect x="84" y="80" width="28" height="4" fill="#5a4030"/>
<rect x="84" y="80" width="4" height="24" fill="#5a4030"/>
<rect x="96" y="84" width="4" height="12" fill="#888"/>
<rect x="94" y="84" width="8" height="4" fill="#666"/>
<text x="60" y="170" font-family="monospace" font-size="11" fill="#3a2a1a" font-weight="bold" text-anchor="middle">工　　坊</text>
</svg>