<svg viewBox="0 0 120 180" width="240" height="360" xmlns="http://www.w3.org/2000/svg">
<rect x="0" y="148" width="120" height="8" fill="#6db33f"/>
<rect x="16" y="20" width="88" height="132" fill="#d0dce8"/>
<rect x="56" y="4" width="8" height="20" fill="#aaaaaa"/>
<rect x="52" y="0" width="16" height="6" fill="#888"/>
<rect x="20" y="28" width="16" height="12" fill="#90b8d8"/>
<rect x="40" y="28" width="16" height="12" fill="#90b8d8"/>
<rect x="60" y="28" width="16" height="12" fill="#90b8d8"/>
<rect x="80" y="28" width="16" height="12" fill="#90b8d8"/>
<rect x="20" y="44" width="16" height="12" fill="#a8c8e8"/>
<rect x="40" y="44" width="16" height="12" fill="#90b8d8"/>
<rect x="60" y="44" width="16" height="12" fill="#a8c8e8"/>
<rect x="80" y="44" width="16" height="12" fill="#90b8d8"/>
<rect x="20" y="60" width="16" height="12" fill="#90b8d8"/>
<rect x="40" y="60" width="16" height="12" fill="#f8e080"/>
<rect x="60" y="60" width="16" height="12" fill="#90b8d8"/>
<rect x="80" y="60" width="16" height="12" fill="#90b8d8"/>
<rect x="20" y="76" width="16" height="12" fill="#90b8d8"/>
<rect x="40" y="76" width="16" height="12" fill="#90b8d8"/>
<rect x="60" y="76" width="16" height="12" fill="#f8e080"/>
<rect x="80" y="76" width="16" height="12" fill="#a8c8e8"/>
<rect x="20" y="92" width="16" height="12" fill="#a8c8e8"/>
<rect x="40" y="92" width="16" height="12" fill="#a8c8e8"/>
<rect x="60" y="92" width="16" height="12" fill="#90b8d8"/>
<rect x="80" y="92" width="16" height="12" fill="#90b8d8"/>
<rect x="20" y="108" width="16" height="12" fill="#90b8d8"/>
<rect x="40" y="108" width="16" height="12" fill="#90b8d8"/>
<rect x="60" y="108" width="16" height="12" fill="#a8c8e8"/>
<rect x="80" y="108" width="16" height="12" fill="#90b8d8"/>
<rect x="16" y="124" width="88" height="28" fill="#b8c8d8"/>
<rect x="16" y="124" width="88" height="4" fill="#8090a0"/>
<rect x="40" y="128" width="40" height="24" fill="#c0d8f0"/>
<rect x="40" y="128" width="40" height="4" fill="#8090a0"/>
<rect x="40" y="128" width="4" height="24" fill="#8090a0"/>
<rect x="76" y="128" width="4" height="24" fill="#8090a0"/>
<rect x="58" y="128" width="4" height="24" fill="#8090a0"/>
<rect x="54" y="140" width="4" height="4" fill="#6080a0"/>
<rect x="16" y="20" width="88" height="4" fill="#e8f0f8"/>
<text x="60" y="170" font-family="monospace" font-size="11" fill="#3a2a1a" font-weight="bold" text-anchor="middle">辦公大樓</text>
</svg>