<svg viewBox="0 0 140 180" width="280" height="360" xmlns="http://www.w3.org/2000/svg">
<rect x="0" y="128" width="140" height="20" fill="#5aaa2a"/>
<rect x="0" y="136" width="140" height="12" fill="#4a9a1a"/>
<rect x="56" y="100" width="12" height="48" fill="#c8b888"/>
<rect x="44" y="120" width="36" height="12" fill="#c8b888"/>
<rect x="8" y="118" width="32" height="4" fill="#8a6030"/>
<rect x="10" y="122" width="4" height="8" fill="#8a6030"/>
<rect x="32" y="122" width="4" height="8" fill="#8a6030"/>
<rect x="44" y="104" width="36" height="16" fill="#80c0e8"/>
<rect x="40" y="108" width="44" height="8" fill="#60a8d0"/>
<rect x="56" y="96" width="12" height="12" fill="#90d0f0"/>
<rect x="60" y="88" width="4" height="12" fill="#a0e0ff"/>
<rect x="56" y="84" width="12" height="8" fill="#80c8f0"/>
<rect x="62" y="76" width="2" height="12" fill="#c0e8ff"/>
<rect x="58" y="78" width="4" height="4" fill="#c0e8ff"/>
<rect x="62" y="78" width="4" height="4" fill="#c0e8ff"/>
<rect x="8" y="60" width="8" height="68" fill="#7a5020"/>
<rect x="0" y="36" width="24" height="28" fill="#3a9a20"/>
<rect x="4" y="28" width="16" height="12" fill="#4aaa28"/>
<rect x="8" y="20" width="8" height="12" fill="#3a9a20"/>
<rect x="0" y="48" width="8" height="12" fill="#2a8a10"/>
<rect x="16" y="44" width="8" height="16" fill="#2a8a10"/>
<rect x="104" y="80" width="6" height="48" fill="#8a6020"/>
<rect x="96" y="56" width="22" height="24" fill="#4ab030"/>
<rect x="100" y="48" width="14" height="12" fill="#50c038"/>
<rect x="104" y="40" width="6" height="12" fill="#4ab030"/>
<rect x="80" y="120" width="52" height="16" fill="#4a9a1a"/>
<rect x="82" y="116" width="4" height="8" fill="#e85080"/>
<rect x="88" y="114" width="4" height="8" fill="#e8c020"/>
<rect x="94" y="116" width="4" height="8" fill="#e85080"/>
<rect x="100" y="114" width="4" height="8" fill="#60c840"/>
<rect x="106" y="116" width="4" height="8" fill="#e07030"/>
<rect x="112" y="114" width="4" height="8" fill="#e85080"/>
<rect x="118" y="116" width="4" height="8" fill="#e8c020"/>
<rect x="126" y="76" width="4" height="52" fill="#888880"/>
<rect x="122" y="72" width="12" height="8" fill="#666"/>
<rect x="124" y="64" width="8" height="12" fill="#f8f040"/>
<rect x="124" y="60" width="8" height="6" fill="#c8b030"/>
<text x="70" y="170" font-family="monospace" font-size="11" fill="#3a2a1a" font-weight="bold" text-anchor="middle">公　　園</text>
</svg>