<svg viewBox="0 0 140 180" width="280" height="360" xmlns="http://www.w3.org/2000/svg">
<rect x="0" y="148" width="140" height="8" fill="#6db33f"/>
<rect x="0" y="136" width="140" height="12" fill="#c8c0a8"/>
<rect x="0" y="136" width="140" height="2" fill="#b0a890"/>
<rect x="28" y="136" width="2" height="12" fill="#b0a890"/>
<rect x="56" y="136" width="2" height="12" fill="#b0a890"/>
<rect x="84" y="136" width="2" height="12" fill="#b0a890"/>
<rect x="112" y="136" width="2" height="12" fill="#b0a890"/>
<rect x="4" y="60" width="132" height="80" fill="#c87848"/>
<rect x="4" y="68" width="132" height="2" fill="#a85830"/>
<rect x="4" y="76" width="132" height="2" fill="#a85830"/>
<rect x="4" y="84" width="132" height="2" fill="#a85830"/>
<rect x="4" y="92" width="132" height="2" fill="#a85830"/>
<rect x="4" y="100" width="132" height="2" fill="#a85830"/>
<rect x="4" y="108" width="132" height="2" fill="#a85830"/>
<rect x="4" y="116" width="132" height="2" fill="#a85830"/>
<rect x="4" y="124" width="132" height="2" fill="#a85830"/>
<rect x="4" y="132" width="132" height="2" fill="#a85830"/>
<rect x="18" y="68" width="2" height="8" fill="#a85830"/>
<rect x="46" y="68" width="2" height="8" fill="#a85830"/>
<rect x="74" y="68" width="2" height="8" fill="#a85830"/>
<rect x="102" y="68" width="2" height="8" fill="#a85830"/>
<rect x="130" y="68" width="2" height="8" fill="#a85830"/>
<rect x="32" y="76" width="2" height="8" fill="#a85830"/>
<rect x="60" y="76" width="2" height="8" fill="#a85830"/>
<rect x="88" y="76" width="2" height="8" fill="#a85830"/>
<rect x="116" y="76" width="2" height="8" fill="#a85830"/>
<rect x="0" y="52" width="140" height="12" fill="#6a3a18"/>
<rect x="4" y="44" width="132" height="12" fill="#7a4a20"/>
<rect x="12" y="36" width="116" height="12" fill="#6a3a18"/>
<rect x="20" y="28" width="100" height="12" fill="#7a4a20"/>
<rect x="28" y="20" width="84" height="12" fill="#6a3a18"/>
<rect x="36" y="12" width="68" height="12" fill="#7a4a20"/>
<rect x="44" y="4" width="52" height="12" fill="#6a3a18"/>
<rect x="52" y="0" width="36" height="8" fill="#7a4a20"/>
<rect x="100" y="12" width="12" height="44" fill="#888070"/>
<rect x="96" y="8" width="20" height="8" fill="#666058"/>
<rect x="102" y="0" width="4" height="12" fill="#e0e0d8"/>
<rect x="108" y="2" width="4" height="8" fill="#e0e0d8"/>
<rect x="32" y="40" width="76" height="20" fill="#2a3828"/>
<rect x="32" y="40" width="76" height="3" fill="#1a2818"/>
<rect x="32" y="40" width="3" height="20" fill="#1a2818"/>
<rect x="105" y="40" width="3" height="20" fill="#1a2818"/>
<rect x="32" y="57" width="76" height="3" fill="#1a2818"/>
<rect x="38" y="44" width="6" height="2" fill="#e8e8d0"/>
<rect x="38" y="48" width="6" height="2" fill="#e8e8d0"/>
<rect x="38" y="44" width="2" height="8" fill="#e8e8d0"/>
<rect x="48" y="44" width="2" height="8" fill="#e8e8d0"/>
<rect x="48" y="48" width="6" height="2" fill="#e8e8d0"/>
<rect x="58" y="44" width="6" height="8" fill="#e8e8d0"/>
<rect x="58" y="44" width="6" height="2" fill="#2a3828"/>
<rect x="72" y="44" width="10" height="8" fill="#f0e8d0"/>
<rect x="70" y="50" width="14" height="2" fill="#c09060"/>
<rect x="82" y="47" width="3" height="5" fill="#f0e8d0"/>
<rect x="72" y="42" width="10" height="3" fill="#c07840"/>
<rect x="86" y="46" width="4" height="2" fill="#e8e8d0"/>
<rect x="92" y="44" width="4" height="8" fill="#e8e8d0"/>
<rect x="96" y="44" width="4" height="8" fill="#e8e8d0"/>
<rect x="92" y="48" width="8" height="2" fill="#e8e8d0"/>
<rect x="8" y="72" width="36" height="36" fill="#f0e8d0"/>
<rect x="8" y="72" width="4" height="44" fill="#6a3a18"/>
<rect x="40" y="72" width="4" height="44" fill="#6a3a18"/>
<rect x="8" y="72" width="36" height="4" fill="#6a3a18"/>
<rect x="8" y="112" width="36" height="4" fill="#6a3a18"/>
<rect x="22" y="72" width="4" height="44" fill="#6a3a18"/>
<rect x="14" y="96" width="8" height="10" fill="#f8f0e0"/>
<rect x="12" y="104" width="12" height="3" fill="#9a6030"/>
<rect x="26" y="96" width="8" height="10" fill="#f8f0e0"/>
<rect x="24" y="104" width="12" height="3" fill="#9a6030"/>
<rect x="96" y="72" width="36" height="44" fill="#f0e8d0"/>
<rect x="96" y="72" width="4" height="44" fill="#6a3a18"/>
<rect x="128" y="72" width="4" height="44" fill="#6a3a18"/>
<rect x="96" y="72" width="36" height="4" fill="#6a3a18"/>
<rect x="96" y="112" width="36" height="4" fill="#6a3a18"/>
<rect x="110" y="72" width="4" height="44" fill="#6a3a18"/>
<rect x="52" y="96" width="36" height="44" fill="#7a4a20"/>
<rect x="52" y="96" width="18" height="44" fill="#8a5a28"/>
<rect x="56" y="100" width="10" height="16" fill="#c09060"/>
<rect x="70" y="100" width="10" height="16" fill="#c09060"/>
<rect x="68" y="118" width="4" height="4" fill="#d0a050"/>
<rect x="52" y="90" width="36" height="10" fill="#f0e0c8"/>
<rect x="52" y="90" width="36" height="3" fill="#6a3a18"/>
<rect x="70" y="90" width="2" height="7" fill="#6a3a18"/>
<rect x="0" y="124" width="28" height="4" fill="#8a5a28"/>
<rect x="4" y="128" width="4" height="16" fill="#8a5a28"/>
<rect x="20" y="128" width="4" height="16" fill="#8a5a28"/>
<rect x="0" y="120" width="8" height="8" fill="#c09060"/>
<rect x="20" y="120" width="8" height="8" fill="#c09060"/>
<rect x="112" y="124" width="28" height="4" fill="#8a5a28"/>
<rect x="116" y="128" width="4" height="16" fill="#8a5a28"/>
<rect x="132" y="128" width="4" height="16" fill="#8a5a28"/>
<rect x="112" y="120" width="8" height="8" fill="#c09060"/>
<rect x="132" y="120" width="8" height="8" fill="#c09060"/>
<text x="70" y="170" font-family="monospace" font-size="11" fill="#3a2a1a" font-weight="bold" text-anchor="middle">咖 啡 廳</text>
</svg>