<svg viewBox="0 0 140 180" width="280" height="360" xmlns="http://www.w3.org/2000/svg">
<rect x="0" y="148" width="140" height="8" fill="#6db33f"/>
<rect x="0" y="136" width="140" height="12" fill="#c8c0a8"/>
<rect x="4" y="52" width="132" height="96" fill="#f8f4ec"/>
<rect x="4" y="100" width="132" height="6" fill="#6a8a50"/>
<rect x="4" y="52" width="132" height="6" fill="#6a8a50"/>
<rect x="0" y="44" width="140" height="12" fill="#3a5a30"/>
<rect x="4" y="36" width="132" height="12" fill="#4a6a3a"/>
<rect x="8" y="28" width="124" height="12" fill="#3a5a30"/>
<rect x="12" y="20" width="116" height="12" fill="#4a6a3a"/>
<rect x="20" y="12" width="100" height="12" fill="#3a5a30"/>
<rect x="28" y="4" width="84" height="12" fill="#4a6a3a"/>
<rect x="36" y="0" width="68" height="8" fill="#3a5a30"/>
<rect x="44" y="28" width="52" height="20" fill="#f8f4ec"/>
<rect x="44" y="28" width="52" height="4" fill="#3a5a30"/>
<rect x="44" y="28" width="4" height="20" fill="#3a5a30"/>
<rect x="92" y="28" width="4" height="20" fill="#3a5a30"/>
<rect x="68" y="28" width="4" height="20" fill="#3a5a30"/>
<rect x="48" y="32" width="18" height="12" fill="#a8d0e8"/>
<rect x="72" y="32" width="18" height="12" fill="#f8e880"/>
<rect x="4" y="52" width="132" height="2" fill="#c8a830"/>
<rect x="12" y="48" width="4" height="4" fill="#f8e040"/>
<rect x="24" y="50" width="4" height="4" fill="#f84040"/>
<rect x="36" y="48" width="4" height="4" fill="#40e040"/>
<rect x="48" y="50" width="4" height="4" fill="#f8e040"/>
<rect x="60" y="48" width="4" height="4" fill="#4080f8"/>
<rect x="72" y="50" width="4" height="4" fill="#f84040"/>
<rect x="84" y="48" width="4" height="4" fill="#f8e040"/>
<rect x="96" y="50" width="4" height="4" fill="#40e040"/>
<rect x="108" y="48" width="4" height="4" fill="#f84040"/>
<rect x="120" y="50" width="4" height="4" fill="#4080f8"/>
<rect x="8" y="60" width="40" height="44" fill="#d8eef8"/>
<rect x="8" y="60" width="40" height="4" fill="#3a5a30"/>
<rect x="8" y="60" width="4" height="44" fill="#3a5a30"/>
<rect x="44" y="60" width="4" height="44" fill="#3a5a30"/>
<rect x="24" y="60" width="4" height="44" fill="#3a5a30"/>
<rect x="8" y="82" width="40" height="4" fill="#3a5a30"/>
<rect x="12" y="88" width="10" height="12" fill="#f0e8d8"/>
<rect x="10" y="86" width="14" height="4" fill="#b08040"/>
<rect x="12" y="100" width="4" height="4" fill="#b08040"/>
<rect x="18" y="100" width="4" height="4" fill="#b08040"/>
<rect x="28" y="88" width="10" height="12" fill="#f0e8d8"/>
<rect x="26" y="86" width="14" height="4" fill="#b08040"/>
<rect x="28" y="100" width="4" height="4" fill="#b08040"/>
<rect x="34" y="100" width="4" height="4" fill="#b08040"/>
<rect x="18" y="64" width="4" height="10" fill="#f8f0d8"/>
<rect x="18" y="62" width="4" height="4" fill="#f84010"/>
<rect x="34" y="64" width="4" height="10" fill="#f8f0d8"/>
<rect x="34" y="62" width="4" height="4" fill="#f84010"/>
<rect x="88" y="60" width="44" height="44" fill="#d8eef8"/>
<rect x="88" y="60" width="44" height="4" fill="#3a5a30"/>
<rect x="88" y="60" width="4" height="44" fill="#3a5a30"/>
<rect x="128" y="60" width="4" height="44" fill="#3a5a30"/>
<rect x="108" y="60" width="4" height="44" fill="#3a5a30"/>
<rect x="88" y="82" width="44" height="4" fill="#3a5a30"/>
<rect x="92" y="72" width="8" height="8" fill="#f0c890"/>
<rect x="90" y="80" width="12" height="4" fill="#c83030"/>
<rect x="114" y="72" width="8" height="8" fill="#f0c890"/>
<rect x="112" y="80" width="12" height="4" fill="#304880"/>
<rect x="52" y="88" width="36" height="52" fill="#5a7a40"/>
<rect x="52" y="88" width="18" height="52" fill="#6a8a50"/>
<rect x="56" y="92" width="10" height="20" fill="#a8c888"/>
<rect x="72" y="92" width="10" height="20" fill="#a8c888"/>
<rect x="68" y="112" width="4" height="4" fill="#d0b050"/>
<rect x="52" y="82" width="36" height="10" fill="#d8eef8"/>
<rect x="52" y="82" width="36" height="3" fill="#3a5a30"/>
<rect x="52" y="82" width="3" height="10" fill="#3a5a30"/>
<rect x="85" y="82" width="3" height="10" fill="#3a5a30"/>
<rect x="68" y="82" width="4" height="10" fill="#3a5a30"/>
<rect x="36" y="106" width="68" height="16" fill="#2a3a20"/>
<rect x="36" y="106" width="68" height="3" fill="#4a6a38"/>
<rect x="36" y="119" width="68" height="3" fill="#4a6a38"/>
<rect x="42" y="109" width="6" height="8" fill="#d8c060"/>
<rect x="52" y="109" width="4" height="8" fill="#d8c060"/>
<rect x="56" y="109" width="4" height="4" fill="#d8c060"/>
<rect x="64" y="109" width="4" height="8" fill="#d8c060"/>
<rect x="68" y="109" width="6" height="8" fill="#d8c060"/>
<rect x="78" y="109" width="6" height="8" fill="#d8c060"/>
<rect x="4" y="132" width="16" height="12" fill="#c07840"/>
<rect x="6" y="122" width="12" height="12" fill="#4a9820"/>
<rect x="4" y="128" width="16" height="4" fill="#a05820"/>
<rect x="120" y="132" width="16" height="12" fill="#c07840"/>
<rect x="122" y="122" width="12" height="12" fill="#4a9820"/>
<rect x="120" y="128" width="16" height="4" fill="#a05820"/>
<text x="70" y="170" font-family="monospace" font-size="11" fill="#3a2a1a" font-weight="bold" text-anchor="middle">餐　　廳</text>
</svg>