<svg viewBox="0 0 140 180" width="280" height="360" xmlns="http://www.w3.org/2000/svg">
<rect x="0" y="148" width="140" height="8" fill="#6db33f"/>
<rect x="0" y="100" width="140" height="56" fill="#d8d0bc"/>
<rect x="0" y="108" width="140" height="2" fill="#c0b8a4"/>
<rect x="0" y="116" width="140" height="2" fill="#c0b8a4"/>
<rect x="0" y="124" width="140" height="2" fill="#c0b8a4"/>
<rect x="0" y="132" width="140" height="2" fill="#c0b8a4"/>
<rect x="0" y="140" width="140" height="2" fill="#c0b8a4"/>
<rect x="20" y="100" width="2" height="56" fill="#c0b8a4"/>
<rect x="40" y="100" width="2" height="56" fill="#c0b8a4"/>
<rect x="60" y="100" width="2" height="56" fill="#c0b8a4"/>
<rect x="80" y="100" width="2" height="56" fill="#c0b8a4"/>
<rect x="100" y="100" width="2" height="56" fill="#c0b8a4"/>
<rect x="120" y="100" width="2" height="56" fill="#c0b8a4"/>
<rect x="36" y="100" width="68" height="12" fill="#7ab8e0"/>
<rect x="28" y="104" width="84" height="8" fill="#68a8d0"/>
<rect x="28" y="100" width="84" height="8" fill="#90c8e8"/>
<rect x="28" y="96" width="84" height="8" fill="#c0d8e8"/>
<rect x="36" y="92" width="68" height="8" fill="#c0d8e8"/>
<rect x="24" y="108" width="4" height="4" fill="#b8b0a0"/>
<rect x="112" y="108" width="4" height="4" fill="#b8b0a0"/>
<rect x="64" y="60" width="12" height="44" fill="#d0c8b0"/>
<rect x="60" y="96" width="20" height="8" fill="#b8b0a0"/>
<rect x="56" y="100" width="28" height="4" fill="#c0b8a8"/>
<rect x="68" y="32" width="4" height="32" fill="#90d0f8"/>
<rect x="64" y="40" width="4" height="24" fill="#80c8f0"/>
<rect x="72" y="40" width="4" height="24" fill="#80c8f0"/>
<rect x="60" y="52" width="4" height="12" fill="#90d0f8"/>
<rect x="76" y="52" width="4" height="12" fill="#90d0f8"/>
<rect x="64" y="28" width="4" height="4" fill="#c0e8ff"/>
<rect x="72" y="28" width="4" height="4" fill="#c0e8ff"/>
<rect x="60" y="36" width="4" height="4" fill="#c0e8ff"/>
<rect x="76" y="36" width="4" height="4" fill="#c0e8ff"/>
<rect x="56" y="48" width="4" height="4" fill="#c0e8ff"/>
<rect x="80" y="48" width="4" height="4" fill="#c0e8ff"/>
<rect x="8" y="16" width="4" height="88" fill="#aaaaaa"/>
<rect x="12" y="16" width="20" height="14" fill="#e83030"/>
<rect x="12" y="22" width="20" height="8" fill="#f0f0f0"/>
<rect x="128" y="16" width="4" height="88" fill="#aaaaaa"/>
<rect x="108" y="16" width="20" height="14" fill="#3050e8"/>
<rect x="108" y="22" width="20" height="8" fill="#f0f0f0"/>
<rect x="30" y="48" width="4" height="56" fill="#888"/>
<rect x="26" y="44" width="12" height="8" fill="#666"/>
<rect x="28" y="36" width="8" height="12" fill="#f8f060"/>
<rect x="28" y="32" width="8" height="6" fill="#c0a820"/>
<rect x="106" y="48" width="4" height="56" fill="#888"/>
<rect x="102" y="44" width="12" height="8" fill="#666"/>
<rect x="104" y="36" width="8" height="12" fill="#f8f060"/>
<rect x="104" y="32" width="8" height="6" fill="#c0a820"/>
<rect x="4" y="116" width="20" height="6" fill="#a07840"/>
<rect x="6" y="122" width="4" height="8" fill="#a07840"/>
<rect x="16" y="122" width="4" height="8" fill="#a07840"/>
<rect x="116" y="116" width="20" height="6" fill="#a07840"/>
<rect x="118" y="122" width="4" height="8" fill="#a07840"/>
<rect x="128" y="122" width="4" height="8" fill="#a07840"/>
<rect x="0" y="60" width="8" height="44" fill="#7a5020"/>
<rect x="0" y="36" width="16" height="28" fill="#3a9a18"/>
<rect x="2" y="28" width="12" height="12" fill="#4aaa20"/>
<rect x="4" y="20" width="8" height="12" fill="#3a9a18"/>
<rect x="124" y="60" width="8" height="44" fill="#7a5020"/>
<rect x="124" y="36" width="16" height="28" fill="#3a9a18"/>
<rect x="126" y="28" width="12" height="12" fill="#4aaa20"/>
<rect x="128" y="20" width="8" height="12" fill="#3a9a18"/>
<rect x="68" y="88" width="4" height="4" fill="#c8c8c0"/>
<rect x="64" y="84" width="8" height="4" fill="#c8c8c0"/>
<rect x="76" y="88" width="4" height="4" fill="#c8c8c0"/>
<rect x="72" y="84" width="8" height="4" fill="#c8c8c0"/>
<text x="70" y="170" font-family="monospace" font-size="11" fill="#3a2a1a" font-weight="bold" text-anchor="middle">廣　　場</text>
</svg>