<svg viewBox="0 0 140 180" width="280" height="360" xmlns="http://www.w3.org/2000/svg">
<rect x="0" y="140" width="140" height="16" fill="#4a9a18"/>
<rect x="4" y="116" width="60" height="28" fill="#7a4a18"/>
<rect x="76" y="116" width="60" height="28" fill="#7a4a18"/>
<rect x="4" y="116" width="60" height="4" fill="#5a3008"/>
<rect x="76" y="116" width="60" height="4" fill="#5a3008"/>
<rect x="8" y="100" width="4" height="20" fill="#4a9020"/>
<rect x="6" y="96" width="8" height="8" fill="#e84080"/>
<rect x="4" y="100" width="12" height="4" fill="#e84080"/>
<rect x="18" y="102" width="4" height="18" fill="#4a9020"/>
<rect x="16" y="96" width="8" height="8" fill="#f0c030"/>
<rect x="14" y="100" width="12" height="4" fill="#f0c030"/>
<rect x="28" y="100" width="4" height="20" fill="#4a9020"/>
<rect x="26" y="94" width="8" height="8" fill="#e84080"/>
<rect x="24" y="100" width="12" height="4" fill="#e84080"/>
<rect x="38" y="100" width="4" height="20" fill="#4a9020"/>
<rect x="36" y="96" width="8" height="8" fill="#a040e0"/>
<rect x="34" y="100" width="12" height="4" fill="#a040e0"/>
<rect x="48" y="100" width="4" height="20" fill="#4a9020"/>
<rect x="46" y="96" width="8" height="8" fill="#e85030"/>
<rect x="44" y="100" width="12" height="4" fill="#e85030"/>
<rect x="80" y="100" width="4" height="20" fill="#4a9020"/>
<rect x="78" y="94" width="8" height="8" fill="#e840a0"/>
<rect x="76" y="100" width="12" height="4" fill="#e840a0"/>
<rect x="90" y="100" width="4" height="20" fill="#4a9020"/>
<rect x="88" y="96" width="8" height="8" fill="#f0c030"/>
<rect x="86" y="100" width="12" height="4" fill="#f0c030"/>
<rect x="100" y="100" width="4" height="20" fill="#4a9020"/>
<rect x="98" y="96" width="8" height="8" fill="#e84080"/>
<rect x="96" y="100" width="12" height="4" fill="#e84080"/>
<rect x="110" y="100" width="4" height="20" fill="#4a9020"/>
<rect x="108" y="94" width="8" height="8" fill="#60c840"/>
<rect x="106" y="100" width="12" height="4" fill="#60c840"/>
<rect x="120" y="100" width="4" height="20" fill="#4a9020"/>
<rect x="118" y="96" width="8" height="8" fill="#a040e0"/>
<rect x="116" y="100" width="12" height="4" fill="#a040e0"/>
<rect x="64" y="100" width="12" height="56" fill="#d8c8a0"/>
<rect x="64" y="108" width="12" height="4" fill="#c8b890"/>
<rect x="64" y="120" width="12" height="4" fill="#c8b890"/>
<rect x="64" y="132" width="12" height="4" fill="#c8b890"/>
<rect x="60" y="60" width="4" height="44" fill="#8a6030"/>
<rect x="76" y="60" width="4" height="44" fill="#8a6030"/>
<rect x="60" y="60" width="20" height="4" fill="#8a6030"/>
<rect x="60" y="72" width="20" height="4" fill="#8a6030"/>
<rect x="56" y="64" width="8" height="4" fill="#4aa020"/>
<rect x="60" y="68" width="8" height="4" fill="#5ab828"/>
<rect x="76" y="64" width="8" height="4" fill="#4aa020"/>
<rect x="72" y="68" width="8" height="4" fill="#5ab828"/>
<rect x="60" y="56" width="4" height="4" fill="#e84080"/>
<rect x="76" y="56" width="4" height="4" fill="#e84080"/>
<rect x="4" y="52" width="6" height="68" fill="#7a5020"/>
<rect x="0" y="28" width="18" height="28" fill="#3a9a18"/>
<rect x="2" y="20" width="14" height="12" fill="#4aaa20"/>
<rect x="4" y="12" width="10" height="12" fill="#3a9a18"/>
<rect x="130" y="52" width="6" height="68" fill="#7a5020"/>
<rect x="122" y="28" width="18" height="28" fill="#3a9a18"/>
<rect x="124" y="20" width="14" height="12" fill="#4aaa20"/>
<rect x="126" y="12" width="10" height="12" fill="#3a9a18"/>
<rect x="66" y="44" width="4" height="4" fill="#e08030"/>
<rect x="62" y="40" width="8" height="4" fill="#e09040"/>
<rect x="70" y="40" width="8" height="4" fill="#e09040"/>
<rect x="66" y="48" width="4" height="4" fill="#4a3010"/>
<text x="70" y="170" font-family="monospace" font-size="11" fill="#3a2a1a" font-weight="bold" text-anchor="middle">花　　園</text>
</svg>