<svg viewBox="0 0 120 180" width="240" height="360" xmlns="http://www.w3.org/2000/svg">
<rect x="0" y="148" width="120" height="8" fill="#6db33f"/>
<rect x="4" y="52" width="112" height="100" fill="#f8f0e0"/>
<rect x="0" y="44" width="120" height="12" fill="#6a4a8a"/>
<rect x="4" y="36" width="112" height="12" fill="#7a5a9a"/>
<rect x="12" y="28" width="96" height="12" fill="#6a4a8a"/>
<rect x="20" y="20" width="80" height="12" fill="#7a5a9a"/>
<rect x="28" y="12" width="64" height="12" fill="#6a4a8a"/>
<rect x="36" y="4" width="48" height="12" fill="#7a5a9a"/>
<rect x="44" y="0" width="32" height="8" fill="#6a4a8a"/>
<rect x="52" y="6" width="16" height="12" fill="#f0c840"/>
<rect x="56" y="4" width="8" height="4" fill="#f0c840"/>
<rect x="54" y="8" width="4" height="4" fill="#f8e880"/>
<rect x="62" y="8" width="4" height="4" fill="#f8e880"/>
<rect x="4" y="80" width="112" height="4" fill="#d8c8a8"/>
<rect x="4" y="112" width="112" height="4" fill="#d8c8a8"/>
<rect x="8" y="56" width="20" height="20" fill="#c0d8f0"/>
<rect x="8" y="56" width="20" height="4" fill="#6a4a8a"/>
<rect x="8" y="56" width="4" height="20" fill="#6a4a8a"/>
<rect x="20" y="60" width="4" height="12" fill="#6a4a8a"/>
<rect x="36" y="56" width="20" height="20" fill="#c0d8f0"/>
<rect x="36" y="56" width="20" height="4" fill="#6a4a8a"/>
<rect x="36" y="56" width="4" height="20" fill="#6a4a8a"/>
<rect x="48" y="60" width="4" height="12" fill="#6a4a8a"/>
<rect x="64" y="56" width="20" height="20" fill="#f8e880"/>
<rect x="64" y="56" width="20" height="4" fill="#6a4a8a"/>
<rect x="64" y="56" width="4" height="20" fill="#6a4a8a"/>
<rect x="76" y="60" width="4" height="12" fill="#6a4a8a"/>
<rect x="92" y="56" width="20" height="20" fill="#c0d8f0"/>
<rect x="92" y="56" width="20" height="4" fill="#6a4a8a"/>
<rect x="92" y="56" width="4" height="20" fill="#6a4a8a"/>
<rect x="104" y="60" width="4" height="12" fill="#6a4a8a"/>
<rect x="8" y="88" width="20" height="20" fill="#c0d8f0"/>
<rect x="8" y="88" width="20" height="4" fill="#6a4a8a"/>
<rect x="8" y="88" width="4" height="20" fill="#6a4a8a"/>
<rect x="20" y="92" width="4" height="12" fill="#6a4a8a"/>
<rect x="36" y="88" width="20" height="20" fill="#f8e880"/>
<rect x="36" y="88" width="20" height="4" fill="#6a4a8a"/>
<rect x="36" y="88" width="4" height="20" fill="#6a4a8a"/>
<rect x="48" y="92" width="4" height="12" fill="#6a4a8a"/>
<rect x="64" y="88" width="20" height="20" fill="#c0d8f0"/>
<rect x="64" y="88" width="20" height="4" fill="#6a4a8a"/>
<rect x="64" y="88" width="4" height="20" fill="#6a4a8a"/>
<rect x="76" y="92" width="4" height="12" fill="#6a4a8a"/>
<rect x="92" y="88" width="20" height="20" fill="#c0d8f0"/>
<rect x="92" y="88" width="20" height="4" fill="#6a4a8a"/>
<rect x="92" y="88" width="4" height="20" fill="#6a4a8a"/>
<rect x="104" y="92" width="4" height="12" fill="#6a4a8a"/>
<rect x="44" y="116" width="32" height="36" fill="#8a6a40"/>
<rect x="44" y="116" width="16" height="36" fill="#9a7a50"/>
<rect x="60" y="128" width="4" height="4" fill="#d0a050"/>
<rect x="36" y="112" width="48" height="8" fill="#6a4a8a"/>
<rect x="32" y="108" width="56" height="8" fill="#7a5a9a"/>
<rect x="20" y="44" width="4" height="4" fill="#f8e040"/>
<rect x="96" y="44" width="4" height="4" fill="#f8e040"/>
<rect x="56" y="40" width="8" height="4" fill="#f8e040"/>
<rect x="58" y="36" width="4" height="8" fill="#f8e040"/>
<text x="60" y="170" font-family="monospace" font-size="11" fill="#3a2a1a" font-weight="bold" text-anchor="middle">旅　　館</text>
</svg>