<svg viewBox="0 0 140 180" width="280" height="360" xmlns="http://www.w3.org/2000/svg">
<rect x="0" y="148" width="140" height="8" fill="#6db33f"/>
<rect x="0" y="60" width="140" height="96" fill="#e8e0d0"/>
<rect x="0" y="44" width="32" height="60" fill="#9a8870"/>
<rect x="0" y="36" width="24" height="16" fill="#8a7860"/>
<rect x="8" y="28" width="20" height="12" fill="#9a8870"/>
<rect x="108" y="44" width="32" height="60" fill="#9a8870"/>
<rect x="116" y="36" width="24" height="16" fill="#8a7860"/>
<rect x="112" y="28" width="20" height="12" fill="#9a8870"/>
<rect x="40" y="20" width="60" height="52" fill="#c89858"/>
<rect x="40" y="20" width="60" height="4" fill="#a87838"/>
<rect x="40" y="28" width="60" height="2" fill="#a87838"/>
<rect x="40" y="36" width="60" height="2" fill="#a87838"/>
<rect x="40" y="44" width="60" height="2" fill="#a87838"/>
<rect x="40" y="52" width="60" height="2" fill="#a87838"/>
<rect x="40" y="60" width="60" height="2" fill="#a87838"/>
<rect x="36" y="8" width="68" height="16" fill="#7a4a20"/>
<rect x="40" y="0" width="60" height="12" fill="#8a5a28"/>
<rect x="44" y="0" width="52" height="8" fill="#7a4a20"/>
<rect x="32" y="12" width="8" height="6" fill="#9a6030"/>
<rect x="100" y="12" width="8" height="6" fill="#9a6030"/>
<rect x="56" y="24" width="28" height="20" fill="#2a5a8a"/>
<rect x="56" y="24" width="8" height="20" fill="#2a5a8a"/>
<rect x="68" y="24" width="8" height="20" fill="#2a5a8a"/>
<rect x="80" y="24" width="8" height="20" fill="#2a5a8a"/>
<rect x="60" y="28" width="4" height="4" fill="#d0e8f8"/>
<rect x="72" y="28" width="4" height="4" fill="#d0e8f8"/>
<rect x="84" y="28" width="4" height="4" fill="#d0e8f8"/>
<rect x="8" y="88" width="124" height="56" fill="#60a8c8"/>
<rect x="4" y="92" width="132" height="44" fill="#50a0c0"/>
<rect x="16" y="96" width="24" height="2" fill="#80c0e0"/>
<rect x="52" y="100" width="36" height="2" fill="#80c0e0"/>
<rect x="100" y="96" width="24" height="2" fill="#80c0e0"/>
<rect x="24" y="108" width="20" height="2" fill="#80c0e0"/>
<rect x="60" y="112" width="28" height="2" fill="#80c0e0"/>
<rect x="96" y="108" width="20" height="2" fill="#80c0e0"/>
<rect x="16" y="120" width="32" height="2" fill="#80c0e0"/>
<rect x="68" y="124" width="24" height="2" fill="#80c0e0"/>
<rect x="96" y="120" width="28" height="2" fill="#80c0e0"/>
<rect x="0" y="84" width="140" height="12" fill="#9a8870"/>
<rect x="0" y="132" width="140" height="12" fill="#9a8870"/>
<rect x="0" y="84" width="12" height="60" fill="#9a8870"/>
<rect x="128" y="84" width="12" height="60" fill="#9a8870"/>
<rect x="28" y="60" width="4" height="28" fill="#e0f4f8"/>
<rect x="24" y="56" width="4" height="16" fill="#e8f8fc"/>
<rect x="32" y="52" width="4" height="20" fill="#e0f4f8"/>
<rect x="60" y="56" width="4" height="32" fill="#e0f4f8"/>
<rect x="56" y="52" width="4" height="16" fill="#e8f8fc"/>
<rect x="64" y="48" width="4" height="20" fill="#e0f4f8"/>
<rect x="96" y="60" width="4" height="28" fill="#e0f4f8"/>
<rect x="92" y="52" width="4" height="20" fill="#e8f8fc"/>
<rect x="100" y="56" width="4" height="16" fill="#e0f4f8"/>
<rect x="0" y="0" width="4" height="88" fill="#6a9020"/>
<rect x="0" y="16" width="4" height="3" fill="#4a7010"/>
<rect x="0" y="32" width="4" height="3" fill="#4a7010"/>
<rect x="0" y="48" width="4" height="3" fill="#4a7010"/>
<rect x="0" y="64" width="4" height="3" fill="#4a7010"/>
<rect x="136" y="0" width="4" height="88" fill="#6a9020"/>
<rect x="136" y="16" width="4" height="3" fill="#4a7010"/>
<rect x="136" y="32" width="4" height="3" fill="#4a7010"/>
<rect x="136" y="48" width="4" height="3" fill="#4a7010"/>
<rect x="136" y="64" width="4" height="3" fill="#4a7010"/>
<rect x="36" y="108" width="8" height="8" fill="#f0c890"/>
<rect x="32" y="116" width="16" height="4" fill="#f0c890"/>
<rect x="88" y="108" width="8" height="8" fill="#f0c890"/>
<rect x="84" y="116" width="16" height="4" fill="#f0c890"/>
<text x="70" y="170" font-family="monospace" font-size="11" fill="#3a2a1a" font-weight="bold" text-anchor="middle">溫　　泉</text>
</svg>