<svg viewBox="0 0 140 180" width="280" height="360" xmlns="http://www.w3.org/2000/svg">
<rect x="0" y="148" width="140" height="8" fill="#6db33f"/>
<rect x="4" y="64" width="132" height="88" fill="#faf0e8"/>
<rect x="0" y="56" width="140" height="12" fill="#d04060"/>
<rect x="0" y="44" width="140" height="16" fill="#c03050"/>
<rect x="4" y="36" width="132" height="12" fill="#d04060"/>
<rect x="36" y="20" width="68" height="28" fill="#a0d0f8"/>
<rect x="36" y="20" width="68" height="4" fill="#808080"/>
<rect x="36" y="20" width="4" height="28" fill="#808080"/>
<rect x="100" y="20" width="4" height="28" fill="#808080"/>
<rect x="68" y="20" width="4" height="28" fill="#808080"/>
<rect x="36" y="32" width="68" height="4" fill="#808080"/>
<rect x="4" y="44" width="28" height="16" fill="#f8f0d8"/>
<rect x="6" y="46" width="12" height="8" fill="#e84060"/>
<rect x="20" y="46" width="4" height="4" fill="#e08030"/>
<rect x="26" y="44" width="4" height="4" fill="#f0c030"/>
<rect x="24" y="48" width="4" height="4" fill="#3080e0"/>
<rect x="108" y="44" width="28" height="16" fill="#f8f0d8"/>
<rect x="112" y="46" width="8" height="8" fill="#6040c0"/>
<rect x="122" y="46" width="4" height="4" fill="#e04060"/>
<rect x="128" y="44" width="4" height="4" fill="#30c060"/>
<rect x="8" y="72" width="52" height="56" fill="#f8f4f0"/>
<rect x="8" y="72" width="52" height="4" fill="#c03050"/>
<rect x="8" y="72" width="4" height="56" fill="#c03050"/>
<rect x="56" y="72" width="4" height="56" fill="#c03050"/>
<rect x="22" y="80" width="24" height="20" fill="#f0e8d8"/>
<rect x="22" y="80" width="24" height="4" fill="#8a6030"/>
<rect x="22" y="80" width="4" height="20" fill="#8a6030"/>
<rect x="42" y="80" width="4" height="20" fill="#8a6030"/>
<rect x="26" y="84" width="16" height="12" fill="#80b8e0"/>
<rect x="26" y="84" width="16" height="6" fill="#60a0c8"/>
<rect x="26" y="90" width="8" height="6" fill="#50a040"/>
<rect x="34" y="90" width="8" height="6" fill="#c06020"/>
<rect x="28" y="100" width="4" height="20" fill="#8a6030"/>
<rect x="38" y="100" width="4" height="20" fill="#8a6030"/>
<rect x="14" y="112" width="6" height="8" fill="#e84060"/>
<rect x="22" y="112" width="6" height="8" fill="#e0a020"/>
<rect x="30" y="112" width="6" height="8" fill="#3060e0"/>
<rect x="38" y="112" width="6" height="8" fill="#50b840"/>
<rect x="46" y="112" width="6" height="8" fill="#c040c0"/>
<rect x="64" y="108" width="28" height="44" fill="#8a5a30"/>
<rect x="68" y="112" width="8" height="20" fill="#c09060"/>
<rect x="80" y="112" width="8" height="20" fill="#c09060"/>
<rect x="76" y="136" width="4" height="4" fill="#d0a050"/>
<rect x="100" y="72" width="32" height="56" fill="#f8f4f0"/>
<rect x="100" y="72" width="32" height="4" fill="#c03050"/>
<rect x="100" y="72" width="4" height="56" fill="#c03050"/>
<rect x="128" y="72" width="4" height="56" fill="#c03050"/>
<rect x="104" y="76" width="24" height="16" fill="#f0d8c0"/>
<rect x="104" y="76" width="24" height="4" fill="#c09060"/>
<rect x="104" y="78" width="10" height="10" fill="#e86040"/>
<rect x="114" y="80" width="14" height="4" fill="#60a0e0"/>
<rect x="104" y="96" width="24" height="16" fill="#d0e8f0"/>
<rect x="104" y="96" width="24" height="4" fill="#4080c0"/>
<rect x="104" y="100" width="24" height="8" fill="#60c0e8"/>
<text x="70" y="170" font-family="monospace" font-size="11" fill="#3a2a1a" font-weight="bold" text-anchor="middle">畫　　室</text>
</svg>