<svg viewBox="0 0 120 180" width="240" height="360" xmlns="http://www.w3.org/2000/svg">
<rect x="0" y="148" width="120" height="8" fill="#6db33f"/>
<rect x="4" y="64" width="112" height="88" fill="#fff8e8"/>
<rect x="0" y="56" width="120" height="12" fill="#7a4a9a"/>
<rect x="4" y="44" width="112" height="16" fill="#8a5aaa"/>
<rect x="8" y="36" width="104" height="12" fill="#7a4a9a"/>
<rect x="16" y="28" width="88" height="12" fill="#8a5aaa"/>
<rect x="24" y="20" width="72" height="12" fill="#7a4a9a"/>
<rect x="32" y="12" width="56" height="12" fill="#8a5aaa"/>
<rect x="40" y="4" width="40" height="12" fill="#7a4a9a"/>
<rect x="28" y="38" width="64" height="20" fill="#f8f0c0"/>
<rect x="28" y="38" width="64" height="4" fill="#7a4a9a"/>
<rect x="36" y="42" width="4" height="12" fill="#5a2a8a"/>
<rect x="32" y="42" width="8" height="4" fill="#5a2a8a"/>
<rect x="36" y="50" width="6" height="6" fill="#5a2a8a" rx="3"/>
<rect x="48" y="44" width="4" height="10" fill="#5a2a8a"/>
<rect x="48" y="50" width="6" height="6" fill="#5a2a8a" rx="3"/>
<rect x="52" y="44" width="8" height="4" fill="#5a2a8a"/>
<rect x="64" y="42" width="4" height="12" fill="#5a2a8a"/>
<rect x="64" y="50" width="6" height="6" fill="#5a2a8a" rx="3"/>
<rect x="68" y="42" width="4" height="12" fill="#5a2a8a"/>
<rect x="68" y="50" width="6" height="6" fill="#5a2a8a" rx="3"/>
<rect x="60" y="42" width="12" height="4" fill="#5a2a8a"/>
<rect x="8" y="72" width="48" height="52" fill="#e8f0f8"/>
<rect x="8" y="72" width="48" height="4" fill="#7a4a9a"/>
<rect x="8" y="72" width="4" height="52" fill="#7a4a9a"/>
<rect x="52" y="72" width="4" height="52" fill="#7a4a9a"/>
<rect x="12" y="92" width="40" height="28" fill="#1a1a1a"/>
<rect x="12" y="88" width="40" height="8" fill="#2a2a2a"/>
<rect x="12" y="84" width="40" height="8" fill="#1a1a1a"/>
<rect x="14" y="96" width="4" height="20" fill="#f8f8f8"/>
<rect x="20" y="96" width="4" height="20" fill="#f8f8f8"/>
<rect x="26" y="96" width="4" height="20" fill="#f8f8f8"/>
<rect x="32" y="96" width="4" height="20" fill="#f8f8f8"/>
<rect x="38" y="96" width="4" height="20" fill="#f8f8f8"/>
<rect x="44" y="96" width="4" height="20" fill="#f8f8f8"/>
<rect x="18" y="96" width="4" height="12" fill="#1a1a1a"/>
<rect x="24" y="96" width="4" height="12" fill="#1a1a1a"/>
<rect x="36" y="96" width="4" height="12" fill="#1a1a1a"/>
<rect x="42" y="96" width="4" height="12" fill="#1a1a1a"/>
<rect x="26" y="80" width="8" height="8" fill="#f0c890"/>
<rect x="24" y="88" width="12" height="4" fill="#7a4a9a"/>
<rect x="60" y="112" width="24" height="40" fill="#7a5030"/>
<rect x="64" y="116" width="8" height="16" fill="#b08050"/>
<rect x="72" y="116" width="8" height="16" fill="#b08050"/>
<rect x="70" y="132" width="4" height="4" fill="#d0a050"/>
<rect x="88" y="72" width="24" height="52" fill="#e8f0f8"/>
<rect x="88" y="72" width="24" height="4" fill="#7a4a9a"/>
<rect x="88" y="72" width="4" height="52" fill="#7a4a9a"/>
<rect x="108" y="72" width="4" height="52" fill="#7a4a9a"/>
<rect x="96" y="80" width="4" height="32" fill="#c08030"/>
<rect x="92" y="96" width="12" height="12" fill="#c08030" rx="6"/>
<rect x="94" y="84" width="8" height="8" fill="#c08030" rx="4"/>
<rect x="96" y="76" width="4" height="8" fill="#8a5820"/>
<text x="60" y="170" font-family="monospace" font-size="11" fill="#3a2a1a" font-weight="bold" text-anchor="middle">音樂教室</text>
</svg>