<svg viewBox="0 0 120 180" width="240" height="360" xmlns="http://www.w3.org/2000/svg">
<rect x="0" y="148" width="120" height="8" fill="#6db33f"/>
<rect x="4" y="56" width="112" height="96" fill="#1e2a3a"/>
<rect x="0" y="48" width="120" height="12" fill="#0a1a2a"/>
<rect x="0" y="36" width="120" height="16" fill="#0a1a2a"/>
<rect x="4" y="28" width="112" height="12" fill="#0a1a2a"/>
<rect x="4" y="28" width="112" height="4" fill="#00d8ff"/>
<rect x="4" y="56" width="4" height="96" fill="#00d8ff"/>
<rect x="112" y="56" width="4" height="96" fill="#00d8ff"/>
<rect x="20" y="32" width="80" height="24" fill="#0a1a2a"/>
<rect x="20" y="32" width="80" height="4" fill="#00d8ff"/>
<rect x="20" y="52" width="80" height="4" fill="#00d8ff"/>
<rect x="20" y="32" width="4" height="24" fill="#00d8ff"/>
<rect x="96" y="32" width="4" height="24" fill="#00d8ff"/>
<rect x="26" y="36" width="4" height="12" fill="#00d8ff"/>
<rect x="26" y="36" width="12" height="4" fill="#00d8ff"/>
<rect x="26" y="42" width="8" height="4" fill="#00d8ff"/>
<rect x="26" y="44" width="12" height="4" fill="#00d8ff"/>
<rect x="42" y="36" width="4" height="12" fill="#00ff88"/>
<rect x="46" y="36" width="4" height="12" fill="#00ff88"/>
<rect x="42" y="42" width="8" height="4" fill="#00ff88"/>
<rect x="56" y="36" width="4" height="12" fill="#ff6060"/>
<rect x="60" y="36" width="4" height="6" fill="#ff6060"/>
<rect x="56" y="42" width="8" height="4" fill="#ff6060"/>
<rect x="56" y="44" width="8" height="4" fill="#ff6060"/>
<rect x="70" y="36" width="12" height="4" fill="#f0c030"/>
<rect x="70" y="40" width="4" height="4" fill="#f0c030"/>
<rect x="70" y="44" width="12" height="4" fill="#f0c030"/>
<rect x="78" y="40" width="4" height="4" fill="#f0c030"/>
<rect x="86" y="36" width="4" height="12" fill="#c060ff"/>
<rect x="90" y="36" width="4" height="6" fill="#c060ff"/>
<rect x="86" y="44" width="8" height="4" fill="#c060ff"/>
<rect x="8" y="64" width="44" height="36" fill="#0a2a3a"/>
<rect x="8" y="64" width="44" height="4" fill="#00d8ff"/>
<rect x="8" y="64" width="4" height="36" fill="#00d8ff"/>
<rect x="48" y="64" width="4" height="36" fill="#00d8ff"/>
<rect x="12" y="70" width="32" height="4" fill="#00ff88"/>
<rect x="12" y="76" width="20" height="4" fill="#00d8ff"/>
<rect x="12" y="82" width="28" height="4" fill="#f0c030"/>
<rect x="12" y="88" width="16" height="4" fill="#ff6060"/>
<rect x="12" y="94" width="24" height="4" fill="#00ff88"/>
<rect x="60" y="64" width="52" height="36" fill="#0a2a3a"/>
<rect x="60" y="64" width="52" height="4" fill="#00d8ff"/>
<rect x="60" y="64" width="4" height="36" fill="#00d8ff"/>
<rect x="108" y="64" width="4" height="36" fill="#00d8ff"/>
<rect x="64" y="70" width="44" height="4" fill="#00d8ff"/>
<rect x="76" y="70" width="4" height="24" fill="#00d8ff"/>
<rect x="64" y="82" width="20" height="4" fill="#00d8ff"/>
<rect x="84" y="74" width="12" height="8" fill="#00ff88"/>
<rect x="76" y="86" width="20" height="8" fill="#ff6060"/>
<rect x="96" y="74" width="12" height="20" fill="#f0c030"/>
<rect x="44" y="112" width="32" height="40" fill="#0a1a2a"/>
<rect x="44" y="112" width="32" height="4" fill="#00d8ff"/>
<rect x="44" y="112" width="4" height="40" fill="#00d8ff"/>
<rect x="72" y="112" width="4" height="40" fill="#00d8ff"/>
<rect x="56" y="148" width="8" height="4" fill="#00d8ff"/>
<rect x="58" y="128" width="4" height="4" fill="#00ff88"/>
<rect x="8" y="104" width="44" height="2" fill="#00d8ff"/>
<rect x="20" y="104" width="2" height="12" fill="#00d8ff"/>
<rect x="38" y="104" width="2" height="8" fill="#00d8ff"/>
<rect x="80" y="104" width="28" height="2" fill="#00d8ff"/>
<rect x="80" y="104" width="2" height="12" fill="#00d8ff"/>
<rect x="94" y="104" width="2" height="8" fill="#00d8ff"/>
<rect x="4" y="148" width="112" height="4" fill="#00d8ff"/>
<text x="60" y="170" font-family="monospace" font-size="11" fill="#aaccee" font-weight="bold" text-anchor="middle">數位工作室</text>
</svg>